<svg width="33" height="33" viewBox="0 0 33 33" fill="none" xmlns="http://www.w3.org/2000/svg">
<path fill-rule="evenodd" clip-rule="evenodd" d="M16.5 0.587158C7.48582 0.587158 0.184723 7.88825 0.184723 16.9025C0.184723 24.122 4.85497 30.2198 11.3403 32.3816C12.1561 32.5243 12.462 32.0349 12.462 31.6066C12.462 31.2191 12.4416 29.9343 12.4416 28.5679C8.34237 29.3225 7.28188 27.5686 6.95557 26.6508C6.77202 26.1818 5.97665 24.7338 5.28325 24.3463C4.71222 24.0404 3.89645 23.2858 5.26286 23.2654C6.54769 23.245 7.46542 24.4483 7.77133 24.9377C9.23971 27.4054 11.585 26.712 12.5232 26.2837C12.6659 25.2233 13.0942 24.5095 13.5633 24.1016C9.93311 23.6937 6.1398 22.2865 6.1398 16.0459C6.1398 14.2716 6.77202 12.8032 7.81212 11.6612C7.64897 11.2533 7.07793 9.58096 7.97528 7.33761C7.97528 7.33761 9.34168 6.90933 12.462 9.00993C13.7672 8.64283 15.154 8.45929 16.5408 8.45929C17.9276 8.45929 19.3144 8.64283 20.6196 9.00993C23.7399 6.88894 25.1063 7.33761 25.1063 7.33761C26.0037 9.58096 25.4326 11.2533 25.2695 11.6612C26.3096 12.8032 26.9418 14.2512 26.9418 16.0459C26.9418 22.3069 23.1281 23.6937 19.498 24.1016C20.0894 24.6114 20.5992 25.5903 20.5992 27.1199C20.5992 29.3021 20.5788 31.056 20.5788 31.6066C20.5788 32.0349 20.8848 32.5447 21.7005 32.3816C24.9394 31.2882 27.7538 29.2066 29.7477 26.4298C31.7416 23.653 32.8144 20.3209 32.8153 16.9025C32.8153 7.88825 25.5142 0.587158 16.5 0.587158Z" fill="white"/>
</svg>
