<svg width="18" height="18" viewBox="0 0 18 18" fill="none" xmlns="http://www.w3.org/2000/svg">
<path fill-rule="evenodd" clip-rule="evenodd" d="M7.96081 14.3996C7.3174 14.3996 6.6803 14.2728 6.08586 14.0266C5.49143 13.7804 4.95132 13.4195 4.49636 12.9645C4.0414 12.5096 3.68051 11.9695 3.43428 11.375C3.18806 10.7806 3.06133 10.1435 3.06133 9.50007C3.06133 8.85666 3.18806 8.21955 3.43428 7.62512C3.68051 7.03069 4.0414 6.49058 4.49636 6.03562C4.95132 5.58066 5.49143 5.21976 6.08586 4.97354C6.6803 4.72732 7.3174 4.60059 7.96081 4.60059C9.26024 4.60059 10.5064 5.11679 11.4253 6.03562C12.3441 6.95445 12.8603 8.20065 12.8603 9.50007C12.8603 10.7995 12.3441 12.0457 11.4253 12.9645C10.5064 13.8834 9.26024 14.3996 7.96081 14.3996ZM7.96081 1.95262C5.9591 1.95262 4.03938 2.7478 2.62396 4.16322C1.20854 5.57864 0.413361 7.49836 0.413361 9.50007C0.413361 11.5018 1.20854 13.4215 2.62396 14.8369C4.03938 16.2524 5.9591 17.0475 7.96081 17.0475C9.96252 17.0475 11.8822 16.2524 13.2977 14.8369C14.7131 13.4215 15.5083 11.5018 15.5083 9.50007C15.5083 7.49836 14.7131 5.57864 13.2977 4.16322C11.8822 2.7478 9.96252 1.95262 7.96081 1.95262ZM17.704 1.81557C17.704 2.28874 17.516 2.74253 17.1814 3.0771C16.8469 3.41168 16.3931 3.59965 15.9199 3.59965C15.4467 3.59965 14.9929 3.41168 14.6584 3.0771C14.3238 2.74253 14.1358 2.28874 14.1358 1.81557C14.1358 1.3424 14.3238 0.888618 14.6584 0.554039C14.9929 0.219459 15.4467 0.0314941 15.9199 0.0314941C16.3931 0.0314941 16.8469 0.219459 17.1814 0.554039C17.516 0.888618 17.704 1.3424 17.704 1.81557Z" fill="white"/>
</svg>
