<svg width="31" height="31" viewBox="0 0 31 31" fill="none" xmlns="http://www.w3.org/2000/svg">
<path d="M30.2621 2.97554V28.0243C30.2621 28.597 30.0346 29.1463 29.6297 29.5512C29.2247 29.9562 28.6754 30.1837 28.1027 30.1837H3.05397C2.48126 30.1837 1.93202 29.9562 1.52706 29.5512C1.12209 29.1463 0.894588 28.597 0.894588 28.0243L0.894588 2.97554C0.894588 2.40284 1.12209 1.85359 1.52706 1.44863C1.93202 1.04367 2.48126 0.816162 3.05397 0.816162L28.1027 0.816162C28.6754 0.816162 29.2247 1.04367 29.6297 1.44863C30.0346 1.85359 30.2621 2.40284 30.2621 2.97554ZM9.5321 12.0449H5.21334V25.8649H9.5321V12.0449ZM9.92078 7.29429C9.92306 6.96761 9.86097 6.64369 9.73805 6.341C9.61514 6.03832 9.43381 5.76282 9.20442 5.53022C8.97502 5.29761 8.70206 5.11248 8.40112 4.98537C8.10017 4.85826 7.77714 4.79168 7.45046 4.78942H7.37272C6.70838 4.78942 6.07126 5.05332 5.6015 5.52308C5.13175 5.99283 4.86784 6.62996 4.86784 7.29429C4.86784 7.95863 5.13175 8.59575 5.6015 9.06551C6.07126 9.53526 6.70838 9.79917 7.37272 9.79917C7.69942 9.80721 8.0245 9.75079 8.3294 9.63315C8.63429 9.51551 8.91301 9.33894 9.14964 9.11354C9.38627 8.88814 9.57617 8.61833 9.70848 8.31951C9.8408 8.0207 9.91294 7.69874 9.92078 7.37203V7.29429ZM25.9434 17.4693C25.9434 13.3146 23.3003 11.6994 20.6745 11.6994C19.8147 11.6564 18.9587 11.8395 18.1919 12.2305C17.425 12.6215 16.774 13.2068 16.3039 13.9279H16.183V12.0449H12.1233V25.8649H16.4421V18.5144C16.3797 17.7616 16.6168 17.0146 17.102 16.4356C17.5872 15.8566 18.2812 15.4924 19.0334 15.4222H19.1975C20.5708 15.4222 21.5901 16.2859 21.5901 18.4626V25.8649H25.9088L25.9434 17.4693Z" fill="white"/>
</svg>
