<svg width="33" height="27" viewBox="0 0 33 27" fill="none" xmlns="http://www.w3.org/2000/svg">
<path d="M29.3964 6.84338C29.4163 7.13104 29.4163 7.4187 29.4163 7.70902C29.4163 16.555 22.682 26.7571 10.3682 26.7571V26.7518C6.7306 26.7571 3.16861 25.7152 0.106384 23.7506C0.635314 23.8142 1.1669 23.846 1.6998 23.8473C4.7143 23.85 7.64264 22.8385 10.0142 20.976C7.1495 20.9217 4.63742 19.0538 3.75984 16.327C4.76335 16.5205 5.79735 16.4808 6.7823 16.2117C3.6591 15.5807 1.41214 12.8366 1.41214 9.64975C1.41214 9.62059 1.41214 9.59275 1.41214 9.56491C2.34274 10.0832 3.38469 10.3709 4.4505 10.4027C1.50891 8.43679 0.602173 4.52351 2.37853 1.46394C5.77747 5.64632 10.7924 8.1889 16.1758 8.458C15.6362 6.13283 16.3733 3.69631 18.1125 2.0618C20.8089 -0.472821 25.0496 -0.342908 27.5842 2.35211C29.0835 2.0565 30.5205 1.50636 31.8355 0.726882C31.3358 2.27655 30.2898 3.59291 28.8926 4.42939C30.2196 4.27296 31.5161 3.91769 32.737 3.37551C31.8382 4.72235 30.7061 5.89555 29.3964 6.84338Z" fill="white"/>
</svg>
